<svg width="6877" height="548" viewBox="0 0 6877 548" fill="none" xmlns="http://www.w3.org/2000/svg">
<g clip-path="url(#clip0_311_244)">
<path d="M153 316.846C273.024 335.84 433.205 328.98 617.417 321.596C847.681 312.366 1208.86 58.4619 1173.27 179.223C1137.68 299.983 1007.42 184.627 1173.27 124.416C1315.39 72.8223 1556.21 46.3412 1718.06 49.2109C2110.38 56.1667 1998.06 183.447 2210.01 261.23C2530.39 378.808 3437.48 357.662 3367.35 124.416C3335.12 17.2111 3193.48 181.892 3298.07 223.76C3402.66 265.628 3695.82 742.25 3871 339.237C3900.57 271.231 4044.86 55.6775 4072.35 168.722C4180 611.261 4253.69 481.894 4379.12 223.76C4478.28 19.6791 5259.05 78.4295 5334 261.23" stroke="white" stroke-width="8"/>
<path d="M1 277.309C163.642 219.942 546.961 126.06 779.106 209.467C1069.29 313.725 1098.54 481.335 1360.64 518.25C1622.74 555.164 1974.93 406.509 2035.19 296.265C2095.45 186.021 2233.52 78.7704 2373.35 66.7982C2513.17 54.826 3053.75 54.826 3754.05 325.697C4454.34 596.568 4760.32 207.471 5629.69 226.926C6499.06 246.381 6469.81 413.493 6362.75 402.019C6255.69 390.546 6403.12 290.279 6511.35 290.279C6597.93 290.279 6791.19 310.898 6877 321.207" stroke="white" stroke-width="12"/>
</g>
<defs>
<clipPath id="clip0_311_244">
<rect width="6877" height="548" fill="white"/>
</clipPath>
</defs>
</svg>
