<svg width="580" height="692" viewBox="0 0 580 692" fill="none" xmlns="http://www.w3.org/2000/svg">
<mask id="mask0_21_252" style="mask-type:alpha" maskUnits="userSpaceOnUse" x="35" y="99" width="498" height="540">
<path d="M455.003 115.938C513.757 205.899 524.096 284.628 529.172 320.845C543.11 420.309 514.919 556.356 495.342 603.202C479.089 642.093 424.048 671.455 200.469 566.597C49.1969 500.708 17.264 420.531 43.8488 380.523C92.7931 311.563 147.578 262.104 165.427 246.947C183.277 231.79 407.944 43.8847 455.003 115.938Z" fill="#C4C4C4"/>
</mask>
<g mask="url(#mask0_21_252)">
<path d="M32.0001 90H592V650H32.0001V90Z" fill="#E5E5E5"/>
<path d="M32.5001 648.793V91.2071L311.293 370L32.5001 648.793ZM33.2071 649.5L312 370.707L590.793 649.5H33.2071ZM591.5 648.793L312.707 370L591.5 91.2071V648.793ZM590.793 90.5L312 369.293L33.2072 90.5H590.793Z" stroke="black" stroke-opacity="0.3"/>
</g>
</svg>
